<?xml version="1.0" encoding="UTF-8" standalone="no"?>
<svg
   height="16.88455"
   viewBox="0 96 599.99802 675.382"
   width="14.99995"
   version="1.1"
   id="svg174"
   sodipodi:docname="trash.svg"
   inkscape:export-filename="trash.svg"
   inkscape:export-xdpi="96"
   inkscape:export-ydpi="96"
   inkscape:version="1.2.2 (b0a84865, 2022-12-01)"
   xmlns:inkscape="http://www.inkscape.org/namespaces/inkscape"
   xmlns:sodipodi="http://sodipodi.sourceforge.net/DTD/sodipodi-0.dtd"
   xmlns="http://www.w3.org/2000/svg"
   xmlns:svg="http://www.w3.org/2000/svg">
  <defs
     id="defs178" />
  <sodipodi:namedview
     id="namedview176"
     pagecolor="#ffffff"
     bordercolor="#000000"
     borderopacity="0.25"
     inkscape:showpageshadow="2"
     inkscape:pageopacity="0.0"
     inkscape:pagecheckerboard="0"
     inkscape:deskcolor="#d1d1d1"
     showgrid="false"
     inkscape:zoom="9.8333333"
     inkscape:cx="12"
     inkscape:cy="12.711864"
     inkscape:window-width="1309"
     inkscape:window-height="890"
     inkscape:window-x="0"
     inkscape:window-y="38"
     inkscape:window-maximized="0"
     inkscape:current-layer="svg174" />
  <path
     d="m 112.30801,771.382 q -29.923002,0 -51.115002,-21.193 -21.193,-21.192 -21.193,-51.115 V 191.383 H 8.1787109e-6 V 131.384 H 179.99901 V 95.999996 h 240 V 131.384 h 179.999 v 59.999 h -40 v 507.691 q 0,30.308 -21,51.308 -21,21 -51.308,21 z m 387.691,-579.999 H 99.999008 v 507.691 q 0,5.385 3.462002,8.847 3.462,3.462 8.847,3.462 h 375.382 q 4.616,0 8.463,-3.846 3.846,-3.847 3.846,-8.463 z m -303.845,440 h 59.999 v -360 h -59.999 z m 147.691,0 h 59.999 v -360 h -59.999 z m -243.846002,-440 v 520 z"
     id="path172"
     style="fill:#ffffff;fill-opacity:1" />
</svg>
