<?xml version="1.0" encoding="UTF-8" standalone="no"?>
<svg
   height="24"
   viewBox="0 96 960 960"
   width="24"
   version="1.1"
   id="svg174"
   sodipodi:docname="trash.svg"
   inkscape:export-filename="trash.svg"
   inkscape:export-xdpi="96"
   inkscape:export-ydpi="96"
   inkscape:version="1.2.2 (b0a84865, 2022-12-01)"
   xmlns:inkscape="http://www.inkscape.org/namespaces/inkscape"
   xmlns:sodipodi="http://sodipodi.sourceforge.net/DTD/sodipodi-0.dtd"
   xmlns="http://www.w3.org/2000/svg"
   xmlns:svg="http://www.w3.org/2000/svg">
  <defs
     id="defs178" />
  <sodipodi:namedview
     id="namedview176"
     pagecolor="#ffffff"
     bordercolor="#000000"
     borderopacity="0.25"
     inkscape:showpageshadow="2"
     inkscape:pageopacity="0.0"
     inkscape:pagecheckerboard="0"
     inkscape:deskcolor="#d1d1d1"
     showgrid="false"
     inkscape:zoom="9.8333333"
     inkscape:cx="12"
     inkscape:cy="12.711864"
     inkscape:window-width="1309"
     inkscape:window-height="890"
     inkscape:window-x="0"
     inkscape:window-y="38"
     inkscape:window-maximized="0"
     inkscape:current-layer="svg174" />
  <path
     d="M292.309 915.999q-29.923 0-51.115-21.193-21.193-21.192-21.193-51.115V336h-40v-59.999H360v-35.384h240v35.384h179.999V336h-40v507.691q0 30.308-21 51.308t-51.308 21H292.309ZM680 336H280v507.691q0 5.385 3.462 8.847 3.462 3.462 8.847 3.462h375.382q4.616 0 8.463-3.846 3.846-3.847 3.846-8.463V336ZM376.155 776h59.999V416h-59.999v360Zm147.691 0h59.999V416h-59.999v360ZM280 336v520-520Z"
     id="path172"
     style="fill:#d34539;fill-opacity:1" />
</svg>
